<?xml version="1.0" encoding="UTF-8"?>
<!DOCTYPE svg PUBLIC "-//W3C//DTD SVG 1.1//EN" "http://www.w3.org/Graphics/SVG/1.1/DTD/svg11.dtd">
<!-- Creator: CorelDRAW 2018 (64-Bit) -->
<svg xmlns="http://www.w3.org/2000/svg" xml:space="preserve" width="10.2778in" height="3.18056in" version="1.1" style="shape-rendering:geometricPrecision; text-rendering:geometricPrecision; image-rendering:optimizeQuality; fill-rule:evenodd; clip-rule:evenodd"
viewBox="0 0 10250.08 3171.98"
 xmlns:xlink="http://www.w3.org/1999/xlink">
 <defs>
  <style type="text/css">
   <![CDATA[
    .str0 {stroke:#000B3D;stroke-width:45.14;stroke-linecap:round;stroke-miterlimit:2.61313}
    .str1 {stroke:#FFBD59;stroke-width:45.14;stroke-linecap:round;stroke-miterlimit:2.61313}
    .fil0 {fill:none}
    .fil4 {fill:none;fill-rule:nonzero}
    .fil1 {fill:#000B3D}
    .fil2 {fill:#FFBD59}
    .fil3 {fill:#FFBD59;fill-rule:nonzero}
   ]]>
  </style>
    <clipPath id="id0">
     <path d="M-0 3171.98l10250.08 0 0 -3171.98 -10250.08 0 0 3171.98z"/>
    </clipPath>
 </defs>
 <g id="Layer_x0020_1">
  <metadata id="CorelCorpID_0Corel-Layer"/>
  <g id="_2568358643840">
   <g>
   </g>
   <g style="clip-path:url(#id0)">
    <g id="_2568358642720">
     <line class="fil0 str0" x1="2607.16" y1="28.62" x2="2607.16" y2= "2843.44" />
     <path class="fil1" d="M3501.35 392.35c0,23.27 -5.52,47.83 -16.45,73.8 -10.82,25.86 -25.97,46.64 -45.45,62.33 32.14,16.45 55.94,38.63 71.42,66.44 15.42,27.7 23.16,59.25 23.16,94.58 0,45.77 -9.42,87.38 -28.14,124.88 -18.78,37.55 -46.21,67.53 -82.24,90.04 -36.09,22.51 -81.11,33.76 -135.05,33.76l-369.23 0 0 -788.02 336.55 0c45.72,0 87.01,10.77 123.8,32.25 36.79,21.38 66.23,50.21 88.3,86.57 22.18,36.36 33.33,77.48 33.33,123.36zm-227.46 232.88l-159.73 0 0 133.97 160.81 0c20.35,0 35.55,-6.71 45.67,-20.13 10.06,-13.53 14.93,-29.11 14.5,-46.75 -0.33,-17.75 -5.52,-33.33 -15.58,-46.75 -10.12,-13.53 -25.32,-20.34 -45.66,-20.34zm-33.76 -294.99l-125.96 0 0 127.26 127.04 0c20.35,0 35.33,-6.33 45.02,-19.05 9.8,-12.82 14.72,-27.7 14.72,-44.58 0,-16.88 -5.09,-31.65 -15.15,-44.37 -10.12,-12.82 -25.32,-19.26 -45.66,-19.26zm0 0z"/>
     <path class="fil1" d="M3996.52 768.28c19.59,0 38.58,-3.51 56.92,-10.61 18.29,-7.2 33.33,-17.96 45.02,-32.25 11.69,-14.28 17.53,-31.87 17.53,-52.81l0 -522.46c32.14,0 64.39,0 96.74,0 32.3,0 64.17,0 95.66,0l0 525.71c0,57.89 -14.66,107.3 -43.93,148.26 -29.33,40.85 -67.75,71.96 -115.36,93.28 -47.62,21.32 -98.48,32.03 -152.58,32.03 -40.42,0 -79.21,-6.22 -116.44,-18.61 -37.12,-12.39 -70.5,-30.19 -100.21,-53.46 -29.59,-23.21 -53.02,-51.73 -70.34,-85.49 -17.32,-33.76 -25.97,-72.39 -25.97,-116.01l0 -525.71c31.6,0 63.69,0 96.31,0 32.57,0 64.71,0 96.31,0l0 522.46c0,20.94 5.95,38.52 17.97,52.81 11.96,14.28 27.11,25.05 45.45,32.25 18.45,7.09 37.44,10.61 56.92,10.61zm0 0z"/>
     <path class="fil1" d="M5109.87 939.26l-397.36 -388.27 0 387.19c-34.52,0 -69.2,0 -104.1,0 -34.95,0 -69.63,0 -104.1,0l0 -791.27 73.15 0 398.45 389.36 0 -386.11c34.47,0 68.82,0 103.02,0 34.2,0 68.5,0 103.02,0l0 789.1 -72.07 0zm0 0z"/>
     <path class="fil1" d="M5756.08 607.26l0 330.92 -199.33 0 0 -330.92 -264.48 -426.58 0 -30.52 217.29 0 142.85 262.31 8.01 0 142.84 -262.31 218.38 0 0 30.52 -265.56 426.58zm0 0z"/>
     <path class="fil1" d="M6864.86 545.36c0,68.28 -11.47,127.91 -34.41,178.99 -22.94,50.97 -53.56,93.5 -91.76,127.69 -38.25,34.2 -81.38,59.95 -129.43,77.27 -48.05,17.15 -97.61,25.75 -148.68,25.75 -50.97,0 -100.43,-8.6 -148.47,-25.75 -48.05,-17.32 -91.22,-43.07 -129.42,-77.27 -38.25,-34.2 -68.83,-76.72 -91.77,-127.69 -22.94,-51.08 -34.41,-110.7 -34.41,-178.99 0,-68.23 11.47,-127.91 34.41,-178.98 22.94,-51.08 53.51,-93.61 91.77,-127.69 38.2,-34.2 81.37,-59.74 129.42,-76.62 48.05,-16.88 97.5,-25.32 148.47,-25.32 51.07,0 100.64,8.44 148.68,25.32 48.05,16.88 91.17,42.42 129.43,76.62 38.2,34.09 68.83,76.62 91.76,127.69 22.94,51.07 34.41,110.76 34.41,178.98zm-601.24 0c0,47.34 9.53,86.95 28.57,118.82 19.15,31.92 43.78,55.73 73.8,71.42 30.14,15.74 61.9,23.59 95.23,23.59 33.33,0 64.98,-7.84 95.01,-23.59 30.14,-15.69 54.76,-39.5 73.8,-71.42 19.15,-31.87 28.78,-71.48 28.78,-118.82 0,-47.29 -9.63,-86.68 -28.78,-118.17 -19.05,-31.6 -43.67,-55.24 -73.8,-70.99 -30.03,-15.69 -61.68,-23.59 -95.01,-23.59 -33.33,0 -65.09,7.9 -95.23,23.59 -30.03,15.74 -54.65,39.39 -73.8,70.99 -19.04,31.49 -28.57,70.88 -28.57,118.17zm0 0z"/>
     <path class="fil1" d="M7313.91 150.16c64.5,0 120.76,11.25 168.81,33.76 48.05,22.51 87.98,52.38 119.9,89.6 31.87,37.12 55.89,79.11 72.07,125.96 16.13,46.91 24.24,95.18 24.24,144.79 0,49.51 -8.12,97.72 -24.24,144.58 -16.18,46.91 -40.2,88.95 -72.07,126.17 -31.93,37.12 -71.86,66.88 -119.9,89.39 -48.05,22.51 -104.32,33.76 -168.81,33.76l-297.16 0 0 -788.02 297.16 0zm-95.66 183.53l0 420.96 95.66 0c41.98,0 76.83,-10.07 104.53,-30.3 27.81,-20.35 48.7,-46.43 62.55,-78.35 13.96,-31.87 20.99,-65.79 20.99,-101.73 0,-36.03 -7.03,-70.01 -20.99,-101.94 -13.85,-31.87 -34.74,-57.89 -62.55,-78.13 -27.7,-20.34 -62.55,-30.52 -104.53,-30.52l-95.66 0zm0 0z"/>
     <path class="fil1" d="M8058.03 938.18c-34.63,0 -69.04,0 -103.23,0 -34.09,0 -67.96,0 -101.73,0l0 -788.02c33.76,0 67.64,0 101.73,0 34.2,0 68.61,0 103.23,0l0 298.46 14.5 0c50.32,0 88.79,-8.44 115.35,-25.32 26.68,-16.88 45.29,-39.61 55.84,-68.18 10.5,-28.57 16.5,-60.66 17.96,-96.31 1.41,-35.6 2.16,-71.85 2.16,-108.65 34.63,0 69.15,0 103.67,0 34.47,0 68.93,0 103.45,0 0,40.58 -0.76,80.02 -2.16,118.39 -1.46,38.25 -6.49,74.83 -15.15,109.73 -8.66,34.79 -23.54,67.64 -44.58,98.48 -20.94,30.73 -50.97,58.43 -90.04,83.11l213.83 346.72 0 31.6 -224 0 -173.14 -304.95c-13.58,2.17 -26.78,3.46 -39.61,3.9 -12.72,0.32 -25.43,0.43 -38.09,0.43l0 300.62zm0 0z"/>
     <path class="fil1" d="M9408.84 545.36c0,68.28 -11.47,127.91 -34.41,178.99 -22.94,50.97 -53.57,93.5 -91.77,127.69 -38.25,34.2 -81.38,59.95 -129.43,77.27 -48.05,17.15 -97.61,25.75 -148.68,25.75 -50.97,0 -100.43,-8.6 -148.47,-25.75 -48.04,-17.32 -91.22,-43.07 -129.42,-77.27 -38.25,-34.2 -68.83,-76.72 -91.77,-127.69 -22.94,-51.08 -34.41,-110.7 -34.41,-178.99 0,-68.23 11.47,-127.91 34.41,-178.98 22.94,-51.08 53.51,-93.61 91.77,-127.69 38.2,-34.2 81.38,-59.74 129.42,-76.62 48.05,-16.88 97.5,-25.32 148.47,-25.32 51.08,0 100.64,8.44 148.68,25.32 48.05,16.88 91.17,42.42 129.43,76.62 38.2,34.09 68.83,76.62 91.77,127.69 22.94,51.07 34.41,110.76 34.41,178.98zm-601.24 0c0,47.34 9.53,86.95 28.57,118.82 19.16,31.92 43.78,55.73 73.8,71.42 30.14,15.74 61.9,23.59 95.23,23.59 33.33,0 64.98,-7.84 95.01,-23.59 30.14,-15.69 54.75,-39.5 73.8,-71.42 19.15,-31.87 28.78,-71.48 28.78,-118.82 0,-47.29 -9.63,-86.68 -28.78,-118.17 -19.05,-31.6 -43.67,-55.24 -73.8,-70.99 -30.03,-15.69 -61.68,-23.59 -95.01,-23.59 -33.33,0 -65.09,7.9 -95.23,23.59 -30.03,15.74 -54.65,39.39 -73.8,70.99 -19.04,31.49 -28.57,70.88 -28.57,118.17zm0 0z"/>
     <path class="fil1" d="M10071.72 658.99l154.32 249.97 0 29.22 -225.3 0 -135.05 -231.8 -104.53 0 0 231.8c-33.76,0 -67.53,0 -101.29,0 -33.76,0 -67.2,0 -100.21,0 0,-131.27 0,-262.59 0,-393.9 0,-131.42 0,-262.8 0,-394.12 56.98,0 114.54,0 172.71,0 58.11,0 115.68,0 172.71,0 51.78,0 96.42,9.42 133.97,28.14 37.49,18.78 67.85,43.61 91.12,74.45 23.37,30.73 39.72,64.71 49.13,101.94 9.36,37.12 11.58,74.77 6.71,112.97 -4.92,38.25 -16.99,74.13 -36.14,107.57 -19.05,33.33 -45.13,61.25 -78.13,83.76zm-166.65 -131.59c21.75,0 39.39,-6.55 52.81,-19.69 13.53,-13.09 22.78,-29.44 27.7,-48.92 4.87,-19.58 5.08,-39.17 0.65,-58.65 -4.49,-19.48 -13.31,-35.98 -26.41,-49.56 -13.15,-13.53 -31.38,-20.35 -54.76,-20.35 -23.26,-0.7 -47.07,-0.86 -71.42,-0.43 -24.4,0.33 -48.59,0.43 -72.5,0.43 0,32.36 0,65.36 0,99.13 0,33.76 0,66.44 0,98.04l143.92 0zm0 0z"/>
     <path class="fil2" d="M3160.08 1602.93l71.21 0 0 125.53 -283.74 0 0 -125.53 70.99 0 0 -309.49 -65.58 0 0 -124.66 272.7 0 0 124.66 -65.58 0 0 309.49zm0 0z"/>
     <path class="fil2" d="M3791.64 1729.33l-282.22 -275.95 0 275.08c-24.56,0 -49.24,0 -74.02,0 -24.67,0 -49.29,0 -73.8,0l0 -562.06 51.94 0 283.09 276.6 0 -274.22c24.35,0 48.7,0 72.94,0 24.35,0 48.81,0 73.37,0l0 560.55 -51.29 0zm0 0z"/>
     <path class="fil2" d="M4232.94 1168.77c45.88,0 85.81,8.01 119.9,24.02 34.03,16.02 62.39,37.23 85.06,63.63 22.62,26.41 39.66,56.27 51.07,89.6 11.53,33.22 17.32,67.42 17.32,102.59 0,35.22 -5.79,69.47 -17.32,102.8 -11.41,33.33 -28.46,63.2 -51.07,89.6 -22.67,26.3 -51.02,47.4 -85.06,63.42 -34.09,16.02 -74.02,24.02 -119.9,24.02l-211.02 0 0 -559.68 211.02 0zm-67.96 130.29l0 299.11 67.96 0c29.86,0 54.59,-7.2 74.23,-21.64 19.75,-14.39 34.52,-32.95 44.37,-55.62 9.96,-22.62 14.94,-46.75 14.94,-72.29 0,-25.54 -4.98,-49.61 -14.94,-72.28 -9.85,-22.62 -24.62,-41.18 -44.37,-55.63 -19.64,-14.39 -44.37,-21.64 -74.23,-21.64l-67.96 0zm0 0z"/>
     <path class="fil2" d="M4868.51 1607.69c13.85,0 27.27,-2.49 40.26,-7.57 13.09,-5.03 23.81,-12.61 32.03,-22.73 8.23,-10.06 12.34,-22.62 12.34,-37.66l0 -370.96c22.94,0 45.88,0 68.82,0 22.94,0 45.56,0 67.96,0l0 373.34c0,41.12 -10.39,76.18 -31.17,105.18 -20.78,29 -48.15,51.18 -82.03,66.44 -33.76,15.15 -69.85,22.73 -108.22,22.73 -28.89,0 -56.49,-4.44 -82.89,-13.2 -26.3,-8.76 -49.94,-21.43 -70.99,-37.87 -21.1,-16.56 -37.77,-36.85 -49.99,-60.82 -12.28,-23.92 -18.4,-51.4 -18.4,-82.46l0 -373.34c22.35,0 45.07,0 68.17,0 23.21,0 46.1,0 68.61,0l0 370.96c0,15.04 4.22,27.59 12.77,37.66 8.5,10.12 19.26,17.7 32.25,22.73 13.09,5.09 26.62,7.57 40.47,7.57zm0 0z"/>
     <path class="fil2" d="M5364.94 1557.26c0,14.45 5.84,25.92 17.53,34.41 11.68,8.55 26.3,14.45 43.93,17.75 17.59,3.19 35.06,3.63 52.38,1.3 17.31,-2.43 31.82,-7.57 43.5,-15.36 11.79,-7.79 17.75,-18.29 17.75,-31.6 0,-13.26 -4.71,-23.37 -14.07,-30.3 -9.25,-6.93 -21.64,-11.79 -37.23,-14.72 -15.47,-3.03 -32.46,-5.03 -51.07,-6.06 -40.58,-3.3 -76.08,-10.66 -106.48,-22.07 -30.3,-11.36 -53.89,-29.06 -70.77,-53.03 -16.77,-24.08 -25.32,-56.38 -25.75,-96.96 -0.6,-34.63 6.71,-64.17 21.86,-88.73 15.26,-24.51 35.55,-44.21 60.82,-59.09 25.22,-14.82 53.13,-24.67 83.76,-29.43 30.73,-4.87 61.36,-4.87 91.98,0 30.73,4.76 58.87,14.61 84.41,29.43 25.65,14.88 46.21,34.58 61.68,59.09 15.42,24.56 22.83,54.11 22.29,88.73 -25,0 -47.78,0 -68.39,0 -20.51,0 -43.02,0 -67.53,0 0,-14.82 -5.08,-26.51 -15.15,-35.06 -10.11,-8.5 -22.83,-14.07 -38.09,-16.67 -15.15,-2.71 -30.3,-2.49 -45.45,0.65 -15.15,3.19 -28.08,8.98 -38.74,17.32 -10.72,8.22 -16.56,18.99 -17.53,32.25 -1.19,13.85 2.22,24.67 10.17,32.46 8.06,7.68 19.04,13.15 32.9,16.45 13.85,3.19 29.06,5.79 45.67,7.79 27.7,3.2 54.59,7.36 80.73,12.56 26.08,5.08 49.67,13.09 70.77,24.02 21.05,10.82 37.71,26.78 49.99,47.83 12.23,21.1 18.4,49.24 18.4,84.41 0,33.49 -8.33,62.28 -24.89,86.36 -16.45,23.97 -38.2,43.28 -65.14,58 -27,14.61 -56.71,24.24 -89.17,29 -32.47,4.87 -64.88,4.76 -97.18,-0.44 -32.19,-5.08 -61.63,-14.99 -88.3,-29.86 -26.73,-14.83 -48.21,-34.85 -64.5,-59.95 -16.18,-25.11 -23.97,-55.24 -23.37,-90.47 23.92,0 46.8,0 68.61,0 21.91,0 45.13,0 69.69,0zm0 0z"/>
     <path class="fil2" d="M5902.86 1296.69l-137.43 0c0,-21.75 0,-43.18 0,-64.28 0,-21.05 0,-42.26 0,-63.63l415.76 0c0,21.37 0,42.58 0,63.63 0,21.1 0,42.53 0,64.28l-136.78 0 0 431.77c-23.37,0 -46.97,0 -70.77,0 -23.7,0 -47.29,0 -70.77,0l0 -431.77zm0 0z"/>
     <path class="fil2" d="M6669.62 1530.21l109.52 177.47 0 20.77 -159.94 0 -95.88 -164.7 -74.45 0 0 164.7c-23.97,0 -47.94,0 -71.85,0 -23.97,0 -47.73,0 -71.21,0 0,-93.17 0,-186.4 0,-279.63 0,-93.33 0,-186.67 0,-280.06 40.52,0 81.43,0 122.72,0 41.23,0 82.13,0 122.72,0 36.79,0 68.44,6.71 95.01,20.13 26.68,13.31 48.26,30.9 64.71,52.81 16.56,21.8 28.19,45.88 34.85,72.29 6.76,26.4 8.44,53.19 4.98,80.29 -3.46,27.16 -12.07,52.59 -25.76,76.4 -13.58,23.7 -32.03,43.5 -55.41,59.52zm-118.38 -93.5c15.42,0 27.92,-4.65 37.44,-14.06 9.63,-9.36 16.23,-20.99 19.69,-34.85 3.46,-13.85 3.57,-27.7 0.43,-41.55 -3.19,-13.85 -9.47,-25.54 -18.83,-35.06 -9.25,-9.63 -22.18,-14.5 -38.74,-14.5 -16.45,-0.43 -33.33,-0.49 -50.65,-0.22 -17.32,0.16 -34.58,0.22 -51.73,0.22 0,22.94 0,46.48 0,70.55 0,23.97 0,47.13 0,69.47l102.37 0zm0 0z"/>
     <path class="fil2" d="M7068.46 1602.93l71.21 0 0 125.53 -283.74 0 0 -125.53 70.99 0 0 -309.49 -65.58 0 0 -124.66 272.7 0 0 124.66 -65.58 0 0 309.49zm0 0z"/>
     <path class="fil2" d="M7638.57 1728.46l-32.9 -70.34 -220.54 0 -32.9 70.34 -139.81 0 0 -20.77 251.71 -546.05 61.68 0 252.57 546.05 0 20.77 -139.82 0zm-79.21 -192.62l-64.71 -147.17 -63.2 147.17 127.91 0zm0 0z"/>
     <path class="fil2" d="M8031.79 1168.77c0,41.55 0,75.97 0,103.24 0,27.16 0,49.67 0,67.53 0,17.91 0,33.11 0,45.67 0,12.44 0,24.4 0,35.93 0,11.41 0,24.45 0,39.17 0,14.61 0,33.01 0,55.19 0,22.07 0,50.16 0,84.19l203.01 0c0,23.97 0,45.45 0,64.5 0,18.94 0,40.36 0,64.28 -57.57,0 -115.57,0 -174.01,0 -58.33,0 -115.95,0 -172.93,0l0 -559.68c23.92,0 47.73,0 71.43,0 23.81,0 47.94,0 72.5,0zm0 0z"/>
     <path class="fil1" d="M3085.19 2140.94l-145.66 0c0,-23.05 0,-45.77 0,-68.17 0,-22.35 0,-44.8 0,-67.31l440.44 0c0,22.51 0,44.96 0,67.31 0,22.4 0,45.13 0,68.17l-144.79 0 0 457.32c-24.83,0 -49.88,0 -75.1,0 -25.11,0 -50.1,0 -74.88,0l0 -457.32zm0 0z"/>
     <path class="fil1" d="M3857.51 2005.46c0,22.07 0,44.47 0,67.09 0,22.51 0,45.34 0,68.39 -29.33,0 -54.97,0 -77.05,0 -21.97,0 -43.83,0 -65.58,0 -21.8,0 -47.34,0 -76.62,0l0 83.76 201.49 0c0,22.67 0,45.18 0,67.53 0,22.24 0,44.69 0,67.31l-201.49 0c0,17.48 0,34.74 0,51.73 0,16.88 0,34.36 0,52.37 29.27,0 55.3,0 78.13,0 22.94,0 46.1,0 69.47,0 23.48,0 49.88,0 79.21,0 0,21.97 0,44.26 0,66.88 0,22.51 0,45.13 0,67.74 -46.21,0 -89.33,0 -129.42,0 -40.15,0 -80.08,0 -119.9,0 -39.82,0 -82.62,0 -128.34,0 0,-99.4 0,-198.47 0,-297.16 0,-98.8 0,-197.38 0,-295.64 45.72,0 87.92,0 126.61,0 38.64,0 77.32,0 116.01,0 38.63,0 81.16,0 127.47,0zm0 0z"/>
     <path class="fil1" d="M4241.24 2411.91l-5.19 0 -108.43 186.35 -163.4 0 0 -22.94 191.32 -291.32 -170.98 -255.6 0 -22.94 157.56 0 93.93 154.1 4.33 0 94.8 -154.1 156.69 0 0 22.94 -171.19 255.6 192.41 291.32 0 22.94 -163.62 0 -108.22 -186.35zm0 0z"/>
     <path class="fil1" d="M5088.7 2599.12l-298.89 -292.18 0 291.32c-25.97,0 -52.1,0 -78.35,0 -26.3,0 -52.37,0 -78.35,0l0 -595.4 55.19 0 299.76 293.05 0 -290.45c25.97,0 51.78,0 77.48,0 25.65,0 51.51,0 77.48,0l0 593.66 -54.33 0zm0 0z"/>
     <path class="fil1" d="M5899.29 2302.61c0,51.4 -8.66,96.31 -25.97,134.84 -17.21,38.42 -40.2,70.45 -69.04,96.09 -28.73,25.7 -61.19,45.02 -97.39,58 -36.09,12.98 -73.32,19.48 -111.68,19.48 -38.42,0 -75.7,-6.49 -111.89,-19.48 -36.09,-12.98 -68.55,-32.3 -97.39,-58 -28.73,-25.64 -51.73,-57.67 -69.04,-96.09 -17.21,-38.53 -25.76,-83.44 -25.76,-134.84 0,-51.35 8.55,-96.2 25.76,-134.62 17.31,-38.36 40.31,-70.39 69.04,-96.09 28.84,-25.65 61.31,-44.86 97.39,-57.57 36.2,-12.66 73.48,-19.05 111.89,-19.05 38.36,0 75.59,6.38 111.68,19.05 36.2,12.71 68.66,31.92 97.39,57.57 28.84,25.7 51.84,57.73 69.04,96.09 17.32,38.42 25.97,83.27 25.97,134.62zm-452.34 0c0,35.66 7.2,65.47 21.64,89.38 14.39,23.97 32.9,41.93 55.41,53.89 22.62,11.85 46.53,17.75 71.64,17.75 25.11,0 48.92,-5.9 71.42,-17.75 22.62,-11.96 41.12,-29.92 55.41,-53.89 14.39,-23.92 21.65,-53.73 21.65,-89.38 0,-35.49 -7.25,-65.04 -21.65,-88.74 -14.28,-23.81 -32.79,-41.61 -55.41,-53.46 -22.51,-11.79 -46.32,-17.75 -71.42,-17.75 -25.11,0 -49.02,5.95 -71.64,17.75 -22.51,11.85 -41.01,29.65 -55.41,53.46 -14.45,23.7 -21.64,53.24 -21.64,88.74zm0 0z"/>
     <path class="fil1" d="M6198.97 2598.25c-25.43,0 -50.86,0 -76.4,0 -25.43,0 -50.54,0 -75.32,0 0,-98.8 0,-197.6 0,-296.29 0,-98.8 0,-197.65 0,-296.51 42.96,0 86.35,0 130.07,0 43.72,0 87.28,0 130.72,0 40.69,0 75.37,8.12 104.1,24.24 28.84,16.02 52,37.17 69.47,63.41 17.58,26.3 29.22,55.08 34.84,86.36 5.63,31.32 5.63,62.71 0,94.15 -5.63,31.32 -17.26,60.11 -34.84,86.35 -17.48,26.13 -40.63,47.13 -69.47,62.98 -28.73,15.91 -63.42,23.81 -104.1,23.81l-109.08 0 0 151.5zm108.43 -287.85c16.29,0 29.65,-5.63 40.04,-16.88 10.5,-11.36 17.59,-25.54 21.21,-42.42 3.73,-16.99 4,-33.82 0.87,-50.43 -3.03,-16.72 -9.85,-30.84 -20.35,-42.42 -10.39,-11.52 -24.35,-17.32 -41.77,-17.32 -17.64,-0.54 -35.71,-0.7 -54.33,-0.43 -18.61,0.32 -36.68,0.43 -54.11,0.43 0,15.91 0,33.98 0,54.33 0,20.23 0,40.36 0,60.38 0,20.08 0,38.31 0,54.76l108.43 0zm0 0z"/>
     <path class="fil1" d="M7019.56 2598.25l-34.85 -74.45 -233.74 0 -34.63 74.45 -148.25 0 0 -22.08 266.86 -578.3 65.14 0 267.51 578.3 0 22.08 -148.04 0zm-84.84 -204.96l-67.74 -155.83 -66.01 155.83 133.75 0zm0 0z"/>
     <path class="fil1" d="M7663.92 2388.32l116.01 187.86 0 22.08 -169.46 0 -101.51 -174.44 -78.78 0 0 174.44c-25.43,0 -50.81,0 -76.18,0 -25.43,0 -50.59,0 -75.53,0 0,-98.8 0,-197.6 0,-296.29 0,-98.8 0,-197.65 0,-296.51 42.96,0 86.35,0 130.07,0 43.72,0 87.06,0 130.07,0 38.95,0 72.5,7.09 100.64,21.21 28.24,14.17 51.13,32.79 68.61,55.84 17.58,23.1 29.86,48.64 36.79,76.62 7.04,28.03 8.71,56.43 4.98,85.27 -3.62,28.73 -12.66,55.62 -27.05,80.73 -14.28,25.11 -33.87,46.21 -58.65,63.2zm-125.31 -100.86c16.29,0 29.49,-4.87 39.61,-14.72 10.22,-9.96 17.15,-22.13 20.78,-36.58 3.73,-14.39 3.89,-28.89 0.43,-43.5 -3.36,-14.72 -9.96,-26.95 -19.91,-36.79 -9.85,-9.95 -23.48,-14.93 -40.91,-14.93 -17.64,-0.54 -35.6,-0.7 -53.89,-0.43 -18.34,0.32 -36.52,0.43 -54.54,0.43 0,24.24 0,48.86 0,73.8 0,24.84 0,49.08 0,72.72l108.43 0zm0 0z"/>
     <path class="fil1" d="M8060.06 2598.25c-25.97,0 -51.84,0 -77.48,0 -25.7,0 -51.24,0 -76.62,0l0 -592.8c25.38,0 50.91,0 76.62,0 25.65,0 51.51,0 77.48,0l0 224.44 11.04 0c37.77,0 66.71,-6.33 86.79,-19.05 20.02,-12.66 34.03,-29.76 41.98,-51.29 7.9,-21.48 12.39,-45.56 13.42,-72.28 1.13,-26.84 1.73,-54.11 1.73,-81.81 25.97,0 51.94,0 77.91,0 25.97,0 51.95,0 77.92,0 0,30.46 -0.59,60.11 -1.73,88.95 -1.03,28.73 -4.76,56.22 -11.25,82.46 -6.49,26.3 -17.69,51.02 -33.55,74.24 -15.74,23.1 -38.31,43.94 -67.74,62.55l161.02 260.8 0 23.81 -168.6 0 -130.51 -229.42c-10.11,1.62 -20.02,2.54 -29.65,2.82 -9.53,0.32 -19.15,0.43 -28.78,0.43l0 226.17zm0 0z"/>
     <polygon class="fil3" points="1899.81,633.69 1716.15,810.55 1388.09,1126.46 350.61,2125.49 304.35,1497.81 1853.55,5.95 "/>
     <polygon class="fil3" points="2276.13,1361.82 626.83,3011.12 626.5,2394.14 2275.8,744.84 "/>
     <polygon class="fil3" points="2275.84,1879.88 2276.03,1880.06 2295.61,2726.4 2295.6,2726.41 1449.42,2762.61 "/>
     <line class="fil4 str1" x1="2945.22" y1="2869.96" x2="8406.27" y2= "2892.36" />
    </g>
   </g>
   <polygon class="fil0" points="-0,3171.98 10250.08,3171.98 10250.08,0 -0,0 "/>
  </g>
 </g>
</svg>
